<?xml version="1.0" encoding="UTF-8"?>
<!DOCTYPE svg PUBLIC "-//W3C//DTD SVG 1.1//EN" "http://www.w3.org/Graphics/SVG/1.1/DTD/svg11.dtd">

<svg xmlns="http://www.w3.org/2000/svg" xmlns:xlink="http://www.w3.org/1999/xlink" xmlns:xs="http://www.w3.org/2001/XMLSchema" xmlns:wb="http://www.ti.com/webench" version="1.1" width="100%" height="100%" viewBox="0 0 1745.0 525.0" preserveAspectRatio="xMidYMid meet">
  <defs>
    <g id="WB_CONTINUATION">
      <circle xmlns="" opacity="0.01" fill="#ffffff" stroke="#000000" stroke-width="0" cx="0" cy="0" r="14" />
      <line fill="none" stroke="#CC0000" stroke-width="2" x1="0" y1="10" x2="0" y2="-10" />
      <line fill="none" stroke="#CC0000" stroke-width="2" x1="-10" y1="-10" x2="10" y2="-10" />
    </g>
    <g id="WB_CAP_POLARIZED">
      <circle xmlns="" opacity="0.01" fill="#ffffff" stroke="#000000" stroke-width="0" cx="0" cy="0" r="14" />
      <path fill="none" stroke="#115566" stroke-width="2" stroke-linecap="round" stroke-linejoin="round" d="M-6.5,12c0.2,0,1.1 -1,2.5 -3c1.5 -2,2.3 -5,2.5 -9c-0.2 -4 -1 -7 -2.5 -9c-1.4 -2 -2.3 -3 -2.5 -3" />
      <line fill="none" stroke="#115566" stroke-width="2" x1="4" y1="13" x2="4" y2="-13" />
      <line fill="none" stroke="#115566" stroke-width="2" x1="-30" y1="0" x2="-2" y2="0" />
      <line fill="none" stroke="#115566" stroke-width="2" x1="4" y1="0" x2="30" y2="0" />
      <line fill="none" stroke="#115566" stroke-width="2" x1="14" y1="10" x2="14" y2="6" />
      <line fill="none" stroke="#115566" stroke-width="2" x1="12" y1="8" x2="16" y2="8" />
    </g>
    <g id="WB_SOURCE_RESISTOR">
      <circle xmlns="" opacity="0.01" fill="#ffffff" stroke="#000000" stroke-width="0" cx="0" cy="0" r="14" />
      <polyline fill="none" stroke="#CC0000" stroke-width="2" stroke-linecap="round" stroke-linejoin="round" points="30,0 20,0 15,-6 7.5,6 0,-6 -7.5,6 -15,-6 -20,0 -30,0" />
    </g>
    <g id="WB_SOURCE_INDUCTOR">
      <circle xmlns="" opacity="0.01" fill="#ffffff" stroke="#000000" stroke-width="0" cx="0" cy="0" r="14" />
      <path fill="none" stroke="#CC0000" stroke-width="2" stroke-linecap="round" stroke-linejoin="round" d="M-10,0c0-0.6-0.2-1.8-0.6-3.3c-0.5-2.4-2-3.7-4.4-4c-2.4,0.3-3.8,1.6-4.3,4c-0.6,2.3-0.8,3.6-0.7,3M-20,0H-30" />
      <path fill="none" stroke="#CC0000" stroke-width="2" stroke-linecap="round" stroke-linejoin="round" d="M0,0c0-0.6-0.2-1.8-0.6-3.3c-0.5-2.4-2-3.7-4.4-4c-2.4,0.3-3.8,1.6-4.3,4c-0.6,2.3-0.8,3.6-0.7,4" />
      <path fill="none" stroke="#CC0000" stroke-width="2" stroke-linecap="round" stroke-linejoin="round" d="M10,0c0-0.6-0.2-1.8-0.6-3.3c-0.5-2.4-2-3.7-4.4-4c-2.4,0.3-3.8,1.6-4.3,4c-0.6,2.3-0.8,3.6-0.7,4" />
      <path fill="none" stroke="#CC0000" stroke-width="2" stroke-linecap="round" stroke-linejoin="round" d="M30,0H20c0-0.6-0.2-1.8-0.6-3.3c-0.5-2.4-2-3.7-4.4-4c-2.4,0.3-3.8,1.6-4.3,4c-0.6,2.3-0.8,3.6-0.7,4" />
      <path fill="none" stroke="#CC0000" stroke-width="2" stroke-linecap="round" stroke-linejoin="round" d=" M10,0 c0.1,0.4,0.1,0.6,0,0.7" />
      <path fill="none" stroke="#CC0000" stroke-width="2" stroke-linecap="round" stroke-linejoin="round" d=" M0,0  c0.1,0.4,0.1,0.6,0,0.7" />
      <path fill="none" stroke="#CC0000" stroke-width="2" stroke-linecap="round" stroke-linejoin="round" d=" M-10,0c0.1,0.4,0.1,0.6,0,0.7" />
    </g>
    <g id="WB_BLOCK_IO">
      <circle xmlns="" opacity="0.01" fill="#ffffff" stroke="#000000" stroke-width="0" cx="0" cy="0" r="14" />
      <line stroke="#CC0000" fill="none" stroke-width="2" x1="-5" y1="0" x2="5" y2="0" />
    </g>
    <g id="WB_CAPACITOR">
      <circle xmlns="" opacity="0.01" fill="#ffffff" stroke="#000000" stroke-width="0" cx="0" cy="0" r="14" />
      <line y1="0" x2="20" stroke="#115566" x1="30" fill="none" stroke-width="2" y2="0" />
      <line y1="0" x2="-20" stroke="#115566" x1="-30" fill="none" stroke-width="2" y2="0" />
      <polyline stroke="#115566" points="3,12 3,-12  " stroke-linejoin="round" fill="none" stroke-width="2" stroke-linecap="round" />
      <polyline stroke="#115566" points="-20,0 -3,0  " stroke-linejoin="round" fill="none" stroke-width="2" stroke-linecap="round" />
      <polyline stroke="#115566" points="3,0 20,0  " stroke-linejoin="round" fill="none" stroke-width="2" stroke-linecap="round" />
      <polyline stroke="#115566" points="-3,12 -3,-12  " stroke-linejoin="round" fill="none" stroke-width="2" stroke-linecap="round" />
    </g>
    <g id="WB_RESISTOR">
      <circle xmlns="" opacity="0.01" fill="#ffffff" stroke="#000000" stroke-width="0" cx="0" cy="0" r="14" />
      <polyline fill="none" stroke="#115566" stroke-width="2" stroke-linecap="round" stroke-linejoin="round" points="30,0 20,0 15,-6 7.5,6 0,-6 -7.5,6 -15,-6 -20,0 -30,0" />
    </g>
    <g id="WB_ZERO_VOLT_SOURCE">
      <circle xmlns="" opacity="0.01" fill="#ffffff" stroke="#000000" stroke-width="0" cx="0" cy="0" r="14" />
      <line stroke="#CC0000" fill="none" stroke-width="2" x1="-5" y1="0" x2="5" y2="0" />
    </g>
    <g id="WB_INDUCTOR">
      <circle xmlns="" opacity="0.01" fill="#ffffff" stroke="#000000" stroke-width="0" cx="0" cy="0" r="14" />
      <path fill="none" stroke="#115566" stroke-width="2" stroke-linecap="round" stroke-linejoin="round" d="M-10,0c0-0.6-0.2-1.8-0.6-3.3c-0.5-2.4-2-3.7-4.4-4c-2.4,0.3-3.8,1.6-4.3,4c-0.6,2.3-0.8,3.6-0.7,3M-20,0H-30" />
      <path fill="none" stroke="#115566" stroke-width="2" stroke-linecap="round" stroke-linejoin="round" d="M0,0c0-0.6-0.2-1.8-0.6-3.3c-0.5-2.4-2-3.7-4.4-4c-2.4,0.3-3.8,1.6-4.3,4c-0.6,2.3-0.8,3.6-0.7,4" />
      <path fill="none" stroke="#115566" stroke-width="2" stroke-linecap="round" stroke-linejoin="round" d="M10,0c0-0.6-0.2-1.8-0.6-3.3c-0.5-2.4-2-3.7-4.4-4c-2.4,0.3-3.8,1.6-4.3,4c-0.6,2.3-0.8,3.6-0.7,4" />
      <path fill="none" stroke="#115566" stroke-width="2" stroke-linecap="round" stroke-linejoin="round" d="M30,0H20c0-0.6-0.2-1.8-0.6-3.3c-0.5-2.4-2-3.7-4.4-4c-2.4,0.3-3.8,1.6-4.3,4c-0.6,2.3-0.8,3.6-0.7,4" />
      <path fill="none" stroke="#115566" stroke-width="2" stroke-linecap="round" stroke-linejoin="round" d=" M10,0 c0.1,0.4,0.1,0.6,0,0.7" />
      <path fill="none" stroke="#115566" stroke-width="2" stroke-linecap="round" stroke-linejoin="round" d=" M0,0  c0.1,0.4,0.1,0.6,0,0.7" />
      <path fill="none" stroke="#115566" stroke-width="2" stroke-linecap="round" stroke-linejoin="round" d=" M-10,0c0.1,0.4,0.1,0.6,0,0.7" />
    </g>
    <g id="WB_VOLTAGE_PROBE">
      <circle xmlns="" opacity="0.01" fill="#ffffff" stroke="#000000" stroke-width="0" cx="0" cy="0" r="14" />
      <rect stroke-width="1" width="20" stroke="#CC0000" x="-10" height="19.5" y="-30" fill="#CC0000" fill-opacity="0.01" />
      <polyline stroke="#CC0000" points="7,-27 4,-22 3,-26 0,-18 -1,-22 -5,-14  " stroke-linejoin="round" fill="none" stroke-width="2" stroke-linecap="round" />
      <line y1="0" x2="0" stroke="#CC0000" x1="0" fill="none" stroke-width="2" y2="-10" />
    </g>
    <g id="WB_CURRENT_PROBE">
      <circle xmlns="" opacity="0.01" fill="#ffffff" stroke="#000000" stroke-width="0" cx="0" cy="0" r="14" />
      <line stroke="#CC0000" stroke-width="2" stroke-linecap="square" stroke-linejoin="round" x1="-16" y1="0" x2="-10" y2="0" />
      <polyline stroke="#CC0000" stroke-width="2" stroke-linecap="square" stroke-linejoin="round" points="6,0 3,-3.5 3,3.5 6,0 -6,0 " />
      <line stroke="#CC0000" stroke-width="2" stroke-linecap="square" stroke-linejoin="round" x1="10" y1="0" x2="16" y2="0" />
      <rect stroke-width="1" x="-9.5" y="-7" fill="none" stroke="#CC0000" width="19" height="14" />
    </g>
    <g id="WB_CURRENT_LOAD">
      <circle xmlns="" opacity="0.01" fill="#ffffff" stroke="#000000" stroke-width="0" cx="0" cy="0" r="14" />
      <path fill="none" stroke="#CC0000" stroke-width="2" stroke-linecap="round" stroke-linejoin="round" d="M-15,0c 0.1, 4.2, 1.6, 7.7, 4.4, 10.6c 2.8, 2.8, 6.4, 4.3, 10.6, 4.4c 4.3-0.1, 7.8-1.6, 10.6 -4.4c 2.9-2.9, 4.3-6.4, 4.4-10.6" />
      <path fill="none" stroke="#CC0000" stroke-width="2" stroke-linecap="round" stroke-linejoin="round" d="M15,0c -0.1,-4.2,-1.6,-7.7,-4.4,-10.6c-2.8,-2.8,-6.4,-4.3,-10.6,-4.4c-4.3,0.1 -7.8,1.6 -10.6,4.4c-2.9,2.9 -4.3,6.4 -4.4,10.6" />
      <line fill="none" stroke="#CC0000" stroke-width="2" x1="30" y1="0" x2="15" y2="0" />
      <line fill="none" stroke="#CC0000" stroke-width="2" x1="-15" y1="0" x2="-30" y2="0" />
      <line fill="none" stroke="#CC0000" stroke-width="2" stroke-linecap="round" stroke-linejoin="round" x1="3" y1="7" x2="12" y2="0" />
      <line fill="none" stroke="#CC0000" stroke-width="2" stroke-linecap="round" stroke-linejoin="round" x1="3" y1="-7" x2="12" y2="0" />
      <line fill="none" stroke="#CC0000" stroke-width="2" stroke-linecap="round" stroke-linejoin="round" x1="12" y1="0" x2="-12" y2="0" />
    </g>
    <g id="WB_LOAD_RESISTOR">
      <circle xmlns="" opacity="0.01" fill="#ffffff" stroke="#000000" stroke-width="0" cx="0" cy="0" r="14" />
      <polyline fill="none" stroke="#CC0000" stroke-width="2" stroke-linecap="round" stroke-linejoin="round" points="30,0 20,0 15,-6 7.5,6 0,-6 -7.5,6 -15,-6 -20,0 -30,0" />
    </g>
    <g id="WB_STARTUP_VOLTAGE_SOURCE">
      <circle xmlns="" opacity="0.01" fill="#ffffff" stroke="#000000" stroke-width="0" cx="0" cy="0" r="14" />
      <circle fill-opacity="0.01" fill="#CC0000" stroke="#CC0000" stroke-width="2" cx="0" cy="0" r="14" />
      <polyline fill="none" stroke="#CC0000" stroke-width="2" points="-6,-11 -6,7 5,9 5,12 " />
      <line fill="none" stroke="#CC0000" stroke-width="2" x1="16" y1="-12" x2="16" y2="-18" />
      <line fill="none" stroke="#CC0000" stroke-width="2" x1="-17" y1="-12" x2="-17" y2="-18" />
      <line fill="none" stroke="#CC0000" stroke-width="2" x1="-14" y1="-15" x2="-20" y2="-15" />
      <line fill="none" stroke="#CC0000" stroke-width="2" x1="-15" y1="0" x2="-30" y2="0" />
      <line fill="none" stroke="#CC0000" stroke-width="2" x1="30" y1="0" x2="15" y2="0" />
    </g>
    <g id="WB_PRIM_STARTUP_VOLTAGE_SOURCE">
      <circle xmlns="" opacity="0.01" fill="#ffffff" stroke="#000000" stroke-width="0" cx="0" cy="0" r="14" />
      <circle fill-opacity="0.01" fill="#CC0000" stroke="#CC0000" stroke-width="2" cx="0" cy="0" r="14" />
      <polyline fill="none" stroke="#CC0000" stroke-width="2" points="-6,-11 -6,7 5,9 5,12 " />
      <line fill="none" stroke="#CC0000" stroke-width="2" x1="16" y1="-12" x2="16" y2="-18" />
      <line fill="none" stroke="#CC0000" stroke-width="2" x1="-17" y1="-12" x2="-17" y2="-18" />
      <line fill="none" stroke="#CC0000" stroke-width="2" x1="-14" y1="-15" x2="-20" y2="-15" />
      <line fill="none" stroke="#CC0000" stroke-width="2" x1="-15" y1="0" x2="-30" y2="0" />
      <line fill="none" stroke="#CC0000" stroke-width="2" x1="30" y1="0" x2="15" y2="0" />
    </g>
    <g id="WB_LMR33640ADDA">
      <circle xmlns="" opacity="0.01" fill="#ffffff" stroke="#000000" stroke-width="0" cx="0" cy="0" r="14" />
      <line fill="none" stroke="#000000" stroke-width="2" stroke-linecap="round" stroke-linejoin="round" x1="-60" y1="70" x2="60" y2="70" />
      <line fill="none" stroke="#000000" stroke-width="2" stroke-linecap="round" stroke-linejoin="round" x1="60" y1="70" x2="60" y2="-70" />
      <line fill="none" stroke="#000000" stroke-width="2" stroke-linecap="round" stroke-linejoin="round" x1="60" y1="-70" x2="-60" y2="-70" />
      <line fill="none" stroke="#000000" stroke-width="2" stroke-linecap="round" stroke-linejoin="round" x1="-60" y1="-70" x2="-60" y2="70" />
      <text id="partNumber_label" x="0" y="-57" style="font-family:arial;font-weight:bold;font-size:12px;text-anchor:middle;">LMR33640ADDA</text>
      <line fill="none" stroke="#000000" stroke-width="2" stroke-linecap="round" stroke-linejoin="round" x1="-80" y1="0" x2="-60" y2="0" />
      <text id="1" x="-56" y="4" transform="rotate(0,-56,4)" style="font-family:arial;font-weight:normal;font-size:9px;text-anchor:start;">PGND</text>
      <line fill="none" stroke="#000000" stroke-width="2" stroke-linecap="round" stroke-linejoin="round" x1="-80" y1="-50" x2="-60" y2="-50" />
      <text id="2" x="-56" y="-46" transform="rotate(0,-56,-46)" style="font-family:arial;font-weight:normal;font-size:9px;text-anchor:start;">VIN</text>
      <line fill="none" stroke="#000000" stroke-width="2" stroke-linecap="round" stroke-linejoin="round" x1="-80" y1="-20" x2="-60" y2="-20" />
      <text id="3" x="-56" y="-16" transform="rotate(0,-56,-16)" style="font-family:arial;font-weight:normal;font-size:9px;text-anchor:start;">EN</text>
      <line fill="none" stroke="#000000" stroke-width="2" stroke-linecap="round" stroke-linejoin="round" x1="80" y1="10" x2="60" y2="10" />
      <text id="4" x="56" y="14" transform="rotate(0,56,14)" style="font-family:arial;font-weight:normal;font-size:9px;text-anchor:end;">PG</text>
      <line fill="none" stroke="#000000" stroke-width="2" stroke-linecap="round" stroke-linejoin="round" x1="80" y1="30" x2="60" y2="30" />
      <text id="5" x="56" y="34" transform="rotate(0,56,34)" style="font-family:arial;font-weight:normal;font-size:9px;text-anchor:end;">FB</text>
      <line fill="none" stroke="#000000" stroke-width="2" stroke-linecap="round" stroke-linejoin="round" x1="-80" y1="30" x2="-60" y2="30" />
      <text id="6" x="-56" y="34" transform="rotate(0,-56,34)" style="font-family:arial;font-weight:normal;font-size:9px;text-anchor:start;">VCC</text>
      <line fill="none" stroke="#000000" stroke-width="2" stroke-linecap="round" stroke-linejoin="round" x1="80" y1="-50" x2="60" y2="-50" />
      <text id="7" x="56" y="-46" transform="rotate(0,56,-46)" style="font-family:arial;font-weight:normal;font-size:9px;text-anchor:end;">BOOT</text>
      <line fill="none" stroke="#000000" stroke-width="2" stroke-linecap="round" stroke-linejoin="round" x1="80" y1="-20" x2="60" y2="-20" />
      <text id="8" x="56" y="-16" transform="rotate(0,56,-16)" style="font-family:arial;font-weight:normal;font-size:9px;text-anchor:end;">SW</text>
      <line fill="none" stroke="#000000" stroke-width="2" stroke-linecap="round" stroke-linejoin="round" x1="80" y1="50" x2="60" y2="50" />
      <text id="9" x="56" y="54" transform="rotate(0,56,54)" style="font-family:arial;font-weight:normal;font-size:9px;text-anchor:end;">AGND</text>
    </g>
    <g id="WB_CAP_OUTPUT">
      <circle xmlns="" opacity="0.01" fill="#ffffff" stroke="#000000" stroke-width="0" cx="0" cy="0" r="14" />
      <path fill="none" stroke="#CC0000" stroke-width="2" stroke-linecap="round" stroke-linejoin="round" d="M-6.5,12c0.2,0,1.1 -1,2.5 -3c1.5 -2,2.3 -5,2.5 -9c-0.2 -4 -1 -7 -2.5 -9c-1.4 -2 -2.3 -3 -2.5 -3" />
      <line fill="none" stroke="#CC0000" stroke-width="2" x1="4" y1="13" x2="4" y2="-13" />
      <line fill="none" stroke="#CC0000" stroke-width="2" x1="-30" y1="0" x2="-2" y2="0" />
      <line fill="none" stroke="#CC0000" stroke-width="2" x1="4" y1="0" x2="30" y2="0" />
      <line fill="none" stroke="#CC0000" stroke-width="2" x1="14" y1="10" x2="14" y2="6" />
      <line fill="none" stroke="#CC0000" stroke-width="2" x1="12" y1="8" x2="16" y2="8" />
    </g>
    <g id="WB_GND">
      <circle xmlns="" opacity="0.01" fill="#ffffff" stroke="#000000" stroke-width="0" cx="0" cy="0" r="14" />
      <line fill="none" stroke="black" stroke-width="2" x1="0" y1="-10" x2="0" y2="0" />
      <line fill="none" stroke="black" stroke-width="2" x1="-13" y1="0" x2="13" y2="0" />
      <line fill="none" stroke="black" stroke-width="2" x1="-9" y1="4" x2="9" y2="4" />
      <line fill="none" stroke="black" stroke-width="2" x1="-3" y1="8" x2="3" y2="8" />
    </g>
    <g id="WB_PRIMITIVE_CAPACITOR">
      <circle xmlns="" opacity="0.01" fill="#ffffff" stroke="#000000" stroke-width="0" cx="0" cy="0" r="14" />
      <line y1="0" x2="20" stroke="#CC0000" x1="30" fill="none" stroke-width="2" y2="0" />
      <line y1="0" x2="-20" stroke="#CC0000" x1="-30" fill="none" stroke-width="2" y2="0" />
      <polyline stroke="#CC0000" points="3,12 3,-12  " stroke-linejoin="round" fill="none" stroke-width="2" stroke-linecap="round" />
      <polyline stroke="#CC0000" points="-20,0 -3,0  " stroke-linejoin="round" fill="none" stroke-width="2" stroke-linecap="round" />
      <polyline stroke="#CC0000" points="3,0 20,0  " stroke-linejoin="round" fill="none" stroke-width="2" stroke-linecap="round" />
      <polyline stroke="#CC0000" points="-3,12 -3,-12  " stroke-linejoin="round" fill="none" stroke-width="2" stroke-linecap="round" />
    </g>
    <g id="WB_PRIMITIVE_INDUCTOR">
      <circle xmlns="" opacity="0.01" fill="#ffffff" stroke="#000000" stroke-width="0" cx="0" cy="0" r="14" />
      <path fill="none" stroke="#CC0000" stroke-width="2" stroke-linecap="round" stroke-linejoin="round" d="M-10,0c0-0.6-0.2-1.8-0.6-3.3c-0.5-2.4-2-3.7-4.4-4c-2.4,0.3-3.8,1.6-4.3,4c-0.6,2.3-0.8,3.6-0.7,3M-20,0H-30" />
      <path fill="none" stroke="#CC0000" stroke-width="2" stroke-linecap="round" stroke-linejoin="round" d="M0,0c0-0.6-0.2-1.8-0.6-3.3c-0.5-2.4-2-3.7-4.4-4c-2.4,0.3-3.8,1.6-4.3,4c-0.6,2.3-0.8,3.6-0.7,4" />
      <path fill="none" stroke="#CC0000" stroke-width="2" stroke-linecap="round" stroke-linejoin="round" d="M10,0c0-0.6-0.2-1.8-0.6-3.3c-0.5-2.4-2-3.7-4.4-4c-2.4,0.3-3.8,1.6-4.3,4c-0.6,2.3-0.8,3.6-0.7,4" />
      <path fill="none" stroke="#CC0000" stroke-width="2" stroke-linecap="round" stroke-linejoin="round" d="M30,0H20c0-0.6-0.2-1.8-0.6-3.3c-0.5-2.4-2-3.7-4.4-4c-2.4,0.3-3.8,1.6-4.3,4c-0.6,2.3-0.8,3.6-0.7,4" />
      <path fill="none" stroke="#CC0000" stroke-width="2" stroke-linecap="round" stroke-linejoin="round" d=" M10,0 c0.1,0.4,0.1,0.6,0,0.7" />
      <path fill="none" stroke="#CC0000" stroke-width="2" stroke-linecap="round" stroke-linejoin="round" d=" M0,0  c0.1,0.4,0.1,0.6,0,0.7" />
      <path fill="none" stroke="#CC0000" stroke-width="2" stroke-linecap="round" stroke-linejoin="round" d=" M-10,0c0.1,0.4,0.1,0.6,0,0.7" />
    </g>
    <g id="WB_PRIM_AC_VOLTAGE_SOURCE">
      <circle xmlns="" opacity="0.01" fill="#ffffff" stroke="#000000" stroke-width="0" cx="0" cy="0" r="14" />
      <circle fill-opacity="0.01" fill="#CC0000" stroke="#CC0000" stroke-width="2" cx="0" cy="0" r="14" />
      <line y1="0" x2="-20" stroke="#CC0000" x1="-30" fill="none" stroke-width="2" y2="0" />
      <line y1="0" x2="20" stroke="#CC0000" x1="30" fill="none" stroke-width="2" y2="0" />
      <polyline stroke="#CC0000" points="-20,0 -15,0  " stroke-linejoin="round" fill="none" stroke-width="2" stroke-linecap="round" />
      <polyline stroke="#CC0000" points="20,0 15,0  " stroke-linejoin="round" fill="none" stroke-width="2" stroke-linecap="round" />
      <path stroke="#CC0000" d="M0,10A5,5 0 0,1 0,0 " fill="none" stroke-width="2" stroke-linecap="round" />
      <path stroke="#CC0000" d="M0-10A5,5 0 1,1 0,0 " fill="none" stroke-width="2" stroke-linecap="round" />
      <line x1="23" y1="-13" x2="23" y2="-7" stroke="#CC0000" fill="none" stroke-width="2" stroke-linecap="round" />
      <line x1="-23" y1="-13" x2="-23" y2="-7" stroke="#CC0000" fill="none" stroke-width="2" stroke-linecap="round" />
      <line x1="-26" y1="-10" x2="-20" y2="-10" stroke="#CC0000" fill="none" stroke-width="2" stroke-linecap="round" />
    </g>
    <g id="WB_PWL_VOLTAGE_SOURCE">
      <circle xmlns="" opacity="0.01" fill="#ffffff" stroke="#000000" stroke-width="0" cx="0" cy="0" r="14" />
      <circle fill-opacity="0.01" fill="#CC0000" stroke="#CC0000" stroke-width="2" cx="0" cy="0" r="14" />
      <line y1="0" x2="-20" stroke="#CC0000" x1="-30" fill="none" stroke-width="2" y2="0" />
      <line y1="0" x2="20" stroke="#CC0000" x1="30" fill="none" stroke-width="2" y2="0" />
      <polyline stroke="#CC0000" points="-7,6 4,8  " stroke-linejoin="round" fill="none" stroke-width="2" stroke-linecap="round" />
      <polyline stroke="#CC0000" points="-7,-6 4,-8  " stroke-linejoin="round" fill="none" stroke-width="2" stroke-linecap="round" />
      <polyline stroke="#CC0000" points="-20,0 -15,0  " stroke-linejoin="round" fill="none" stroke-width="2" stroke-linecap="round" />
      <polyline stroke="#CC0000" points="20,0 15,0  " stroke-linejoin="round" fill="none" stroke-width="2" stroke-linecap="round" />
      <polyline stroke="#CC0000" points="-7,-6 -7,6  " stroke-linejoin="round" fill="none" stroke-width="2" stroke-linecap="round" />
      <polyline stroke="#CC0000" points="4,-8 4,-11  " stroke-linejoin="round" fill="none" stroke-width="2" stroke-linecap="round" />
      <polyline stroke="#CC0000" points="4,8 4,11  " stroke-linejoin="round" fill="none" stroke-width="2" stroke-linecap="round" />
      <line x1="23" y1="-13" x2="23" y2="-7" stroke="#CC0000" fill="none" stroke-width="2" stroke-linecap="round" />
      <line x1="-23" y1="-13" x2="-23" y2="-7" stroke="#CC0000" fill="none" stroke-width="2" stroke-linecap="round" />
      <line x1="-26" y1="-10" x2="-20" y2="-10" stroke="#CC0000" fill="none" stroke-width="2" stroke-linecap="round" />
    </g>
    <g id="WB_PRIM_PWL_VOLTAGE_SOURCE">
      <circle xmlns="" opacity="0.01" fill="#ffffff" stroke="#000000" stroke-width="0" cx="0" cy="0" r="14" />
      <circle fill-opacity="0.01" fill="#CC0000" stroke="#CC0000" stroke-width="2" cx="0" cy="0" r="14" />
      <line x1="-30" y1="0" x2="-15" y2="0" stroke="#CC0000" fill="none" stroke-width="2" />
      <line x1="30" y1="0" x2="15" y2="0" stroke="#CC0000" fill="none" stroke-width="2" />
      <polyline stroke="#CC0000" points="0,13 0,8 -7,6 -7,0 7,-4 0,-8 0,-13" stroke-linejoin="round" fill="none" stroke-width="2" stroke-linecap="round" />
      <line x1="23" y1="-13" x2="23" y2="-7" stroke="#CC0000" fill="none" stroke-width="2" stroke-linecap="round" />
      <line x1="-23" y1="-13" x2="-23" y2="-7" stroke="#CC0000" fill="none" stroke-width="2" stroke-linecap="round" />
      <line x1="-26" y1="-10" x2="-20" y2="-10" stroke="#CC0000" fill="none" stroke-width="2" stroke-linecap="round" />
    </g>
    <g id="WB_PWL_CURRENT_LOAD">
      <circle xmlns="" opacity="0.01" fill="#ffffff" stroke="#000000" stroke-width="0" cx="0" cy="0" r="14" />
      <circle fill-opacity="0.01" fill="#CC0000" stroke="#CC0000" stroke-width="2" cx="0" cy="0" r="14" />
      <line y1="0" x2="-20" stroke="#CC0000" x1="-30" fill="none" stroke-width="2" y2="0" />
      <line y1="0" x2="20" stroke="#CC0000" x1="30" fill="none" stroke-width="2" y2="0" />
      <polyline stroke="#CC0000" points="-7,6 4,8  " stroke-linejoin="round" fill="none" stroke-width="2" stroke-linecap="round" />
      <polyline stroke="#CC0000" points="-7,-6 4,-8  " stroke-linejoin="round" fill="none" stroke-width="2" stroke-linecap="round" />
      <polyline stroke="#CC0000" points="-20,0 -15,0  " stroke-linejoin="round" fill="none" stroke-width="2" stroke-linecap="round" />
      <polyline stroke="#CC0000" points="20,0 15,0  " stroke-linejoin="round" fill="none" stroke-width="2" stroke-linecap="round" />
      <polyline stroke="#CC0000" points="-7,-6 -7,6  " stroke-linejoin="round" fill="none" stroke-width="2" stroke-linecap="round" />
      <polyline stroke="#CC0000" points="4,-8 4,-11  " stroke-linejoin="round" fill="none" stroke-width="2" stroke-linecap="round" />
      <polyline stroke="#CC0000" points="4,8 4,11  " stroke-linejoin="round" fill="none" stroke-width="2" stroke-linecap="round" />
      <line x1="23" y1="-13" x2="23" y2="-7" stroke="#CC0000" fill="none" stroke-width="2" stroke-linecap="round" />
      <line x1="-23" y1="-13" x2="-23" y2="-7" stroke="#CC0000" fill="none" stroke-width="2" stroke-linecap="round" />
      <line x1="-26" y1="-10" x2="-20" y2="-10" stroke="#CC0000" fill="none" stroke-width="2" stroke-linecap="round" />
    </g>
    <g id="WB_PRIMITIVE_BATTERY">
      <circle xmlns="" opacity="0.01" fill="#ffffff" stroke="#000000" stroke-width="0" cx="0" cy="0" r="14" />
      <line fill="none" stroke="#CC0000" stroke-width="2" x1="-8" y1="0" x2="-30" y2="0" />
      <line fill="none" stroke="#CC0000" stroke-width="2" x1="-7" y1="12" x2="-7" y2="-12" />
      <line fill="none" stroke="#CC0000" stroke-width="2" x1="4" y1="12" x2="4" y2="-12" />
      <line fill="none" stroke="#CC0000" stroke-width="2" x1="30" y1="0" x2="11" y2="0" />
      <line fill="none" stroke="#CC0000" stroke-width="2" x1="-2" y1="5" x2="-2" y2="-5" />
      <line fill="none" stroke="#CC0000" stroke-width="2" x1="-1" y1="5" x2="-1" y2="-5" />
      <line fill="none" stroke="#CC0000" stroke-width="2" x1="-14" y1="-9" x2="-14" y2="-15" />
      <line fill="none" stroke="#CC0000" stroke-width="2" x1="-11" y1="-12" x2="-17" y2="-12" />
      <line fill="none" stroke="#CC0000" stroke-width="2" x1="13" y1="-10" x2="13" y2="-15" />
      <line fill="none" stroke="#CC0000" stroke-width="2" x1="10" y1="5" x2="10" y2="-5" />
      <line fill="none" stroke="#CC0000" stroke-width="2" x1="9" y1="5" x2="9" y2="-5" />
    </g>
    <g id="WB_BATTERY">
      <circle xmlns="" opacity="0.01" fill="#ffffff" stroke="#000000" stroke-width="0" cx="0" cy="0" r="14" />
      <line fill="none" stroke="#CC0000" stroke-width="2" x1="-8" y1="0" x2="-30" y2="0" />
      <line fill="none" stroke="#CC0000" stroke-width="2" x1="-7" y1="12" x2="-7" y2="-12" />
      <line fill="none" stroke="#CC0000" stroke-width="2" x1="4" y1="12" x2="4" y2="-12" />
      <line fill="none" stroke="#CC0000" stroke-width="2" x1="30" y1="0" x2="11" y2="0" />
      <line fill="none" stroke="#CC0000" stroke-width="2" x1="-2" y1="5" x2="-2" y2="-5" />
      <line fill="none" stroke="#CC0000" stroke-width="2" x1="-1" y1="5" x2="-1" y2="-5" />
      <line fill="none" stroke="#CC0000" stroke-width="2" x1="-14" y1="-9" x2="-14" y2="-15" />
      <line fill="none" stroke="#CC0000" stroke-width="2" x1="-11" y1="-12" x2="-17" y2="-12" />
      <line fill="none" stroke="#CC0000" stroke-width="2" x1="13" y1="-10" x2="13" y2="-15" />
      <line fill="none" stroke="#CC0000" stroke-width="2" x1="10" y1="5" x2="10" y2="-5" />
      <line fill="none" stroke="#CC0000" stroke-width="2" x1="9" y1="5" x2="9" y2="-5" />
    </g>
  </defs>
  <use id="Rpg" class="comp" xlink:href="#WB_RESISTOR" x="1070.0" y="265.0" partNo="CRCW0603100KFKEA" thermalId="0603" resistance="100kOhm" manufacturer="Vishay-Dale" />
  <text for="Rpg" x="1050.0" y="250.0" style="font-family:arial;font-size:13px;stroke-width:0.5;stroke:#115566;fill:#115566;">Rpg</text>
  <text for="Rpg" x="1050.0" y="285.0" style="font-family:arial;font-size:10px;stroke-width:0.1;stroke:#CC0000;fill:#CC0000;">100kOhm</text>
  <use id="L1" class="comp" xlink:href="#WB_INDUCTOR" x="1110.0" y="195.0" partNo="MSS1210-153MEB" thermalId="MSS1210" l="15uH" dcr="19mOhm" manufacturer="Coilcraft" />
  <text for="L1" x="1090.0" y="180.0" style="font-family:arial;font-size:13px;stroke-width:0.5;stroke:#115566;fill:#115566;">L1</text>
  <text for="L1" x="1090.0" y="215.0" style="font-family:arial;font-size:10px;stroke-width:0.1;stroke:#CC0000;fill:#CC0000;">15uH</text>
  <text for="L1" x="1090.0" y="225.0" style="font-family:arial;font-size:10px;stroke-width:0.1;stroke:#CC0000;fill:#CC0000;">19mOhm</text>
  <use id="Cboot" class="comp" xlink:href="#WB_CAPACITOR" x="1025.0" y="140.0" transform="rotate(-90, 1025.0, 140.0)" cap="100nF" partNo="GRM155R71A104KA01D" thermalId="0402" esr="1mOhm" manufacturer="MuRata" />
  <text for="Cboot" x="1040.0" y="140.0" style="font-family:arial;font-size:13px;stroke-width:0.5;stroke:#115566;fill:#115566;">Cboot</text>
  <text for="Cboot" x="1040.0" y="150.0" style="font-family:arial;font-size:10px;stroke-width:0.1;stroke:#CC0000;fill:#CC0000;">100nF</text>
  <text for="Cboot" x="1040.0" y="160.0" style="font-family:arial;font-size:10px;stroke-width:0.1;stroke:#CC0000;fill:#CC0000;">1mOhm</text>
  <use id="Cin" class="comp" xlink:href="#WB_CAPACITOR" x="475.0" y="290.0" transform="rotate(-90, 475.0, 290.0)" cap="10uF" partNo="C3225X7R1H106M250AC" thermalId="1210" esr="1mOhm" manufacturer="TDK" />
  <text for="Cin" x="490.0" y="290.0" style="font-family:arial;font-size:13px;stroke-width:0.5;stroke:#115566;fill:#115566;">Cin</text>
  <text for="Cin" x="490.0" y="300.0" style="font-family:arial;font-size:10px;stroke-width:0.1;stroke:#CC0000;fill:#CC0000;">10uF</text>
  <text for="Cin" x="490.0" y="310.0" style="font-family:arial;font-size:10px;stroke-width:0.1;stroke:#CC0000;fill:#CC0000;">1mOhm</text>
  <text for="Cin" x="490.0" y="320.0" style="font-family:arial;font-size:10px;stroke-width:0.1;stroke:#CC0000;fill:#CC0000;">Qty=3</text>
  <use id="U1" class="comp" xlink:href="#WB_LMR33640ADDA" x="870.0" y="215.0" />
  <text for="U1" x="850.0" y="215.0" style="font-family:arial;font-size:13px;stroke-width:0.5;stroke:#115566;fill:#115566;">U1</text>
  <use id="Coutx" class="comp" xlink:href="#WB_CAPACITOR" x="1440.0" y="300.0" transform="rotate(-90, 1440.0, 300.0)" cap="100nF" partNo="GRM188R71H104KA93D" thermalId="0603" esr="20mOhm" manufacturer="MuRata" />
  <text for="Coutx" x="1455.0" y="300.0" style="font-family:arial;font-size:13px;stroke-width:0.5;stroke:#115566;fill:#115566;">Coutx</text>
  <text for="Coutx" x="1455.0" y="310.0" style="font-family:arial;font-size:10px;stroke-width:0.1;stroke:#CC0000;fill:#CC0000;">100nF</text>
  <text for="Coutx" x="1455.0" y="320.0" style="font-family:arial;font-size:10px;stroke-width:0.1;stroke:#CC0000;fill:#CC0000;">20mOhm</text>
  <use id="Rfbt" class="comp" xlink:href="#WB_RESISTOR" x="1275.0" y="245.0" transform="rotate(-90, 1275.0, 245.0)" partNo="CRCW0402100KFKED" thermalId="0402" resistance="100kOhm" manufacturer="Vishay-Dale" />
  <text for="Rfbt" x="1290.0" y="245.0" style="font-family:arial;font-size:13px;stroke-width:0.5;stroke:#115566;fill:#115566;">Rfbt</text>
  <text for="Rfbt" x="1290.0" y="255.0" style="font-family:arial;font-size:10px;stroke-width:0.1;stroke:#CC0000;fill:#CC0000;">100kOhm</text>
  <use id="Rfbb" class="comp" xlink:href="#WB_RESISTOR" x="1275.0" y="345.0" transform="rotate(-90, 1275.0, 345.0)" partNo="CRCW040218K2FKED" thermalId="0402" resistance="18.2kOhm" manufacturer="Vishay-Dale" />
  <text for="Rfbb" x="1290.0" y="345.0" style="font-family:arial;font-size:13px;stroke-width:0.5;stroke:#115566;fill:#115566;">Rfbb</text>
  <text for="Rfbb" x="1290.0" y="355.0" style="font-family:arial;font-size:10px;stroke-width:0.1;stroke:#CC0000;fill:#CC0000;">18.2kOhm</text>
  <use id="Cout" class="comp" xlink:href="#WB_CAPACITOR" x="1345.0" y="300.0" transform="rotate(-90, 1345.0, 300.0)" cap="47uF" partNo="GRM32ER61C476KE15L" thermalId="1210_280" esr="3.037mOhm" manufacturer="MuRata" />
  <text for="Cout" x="1360.0" y="300.0" style="font-family:arial;font-size:13px;stroke-width:0.5;stroke:#115566;fill:#115566;">Cout</text>
  <text for="Cout" x="1360.0" y="310.0" style="font-family:arial;font-size:10px;stroke-width:0.1;stroke:#CC0000;fill:#CC0000;">47uF</text>
  <text for="Cout" x="1360.0" y="320.0" style="font-family:arial;font-size:10px;stroke-width:0.1;stroke:#CC0000;fill:#CC0000;">3.037mOhm</text>
  <text for="Cout" x="1360.0" y="330.0" style="font-family:arial;font-size:10px;stroke-width:0.1;stroke:#CC0000;fill:#CC0000;">Qty=3</text>
  <use id="GND" class="other" xlink:href="#WB_GND" x="865.0" y="425.0" />
  <use id="Cvcc" class="comp" xlink:href="#WB_CAPACITOR" x="785.0" y="350.0" transform="rotate(-90, 785.0, 350.0)" cap="1uF" partNo="GRM188R60J105KA01D" thermalId="0603" esr="6.065mOhm" manufacturer="MuRata" />
  <text for="Cvcc" x="800.0" y="350.0" style="font-family:arial;font-size:13px;stroke-width:0.5;stroke:#115566;fill:#115566;">Cvcc</text>
  <text for="Cvcc" x="800.0" y="360.0" style="font-family:arial;font-size:10px;stroke-width:0.1;stroke:#CC0000;fill:#CC0000;">1uF</text>
  <text for="Cvcc" x="800.0" y="370.0" style="font-family:arial;font-size:10px;stroke-width:0.1;stroke:#CC0000;fill:#CC0000;">6.065mOhm</text>
  <use id="Cinx" class="comp" xlink:href="#WB_CAPACITOR" x="555.0" y="290.0" transform="rotate(-90, 555.0, 290.0)" cap="220nF" partNo="UMK212B7224KG-T" thermalId="0805" esr="1mOhm" manufacturer="Taiyo Yuden" />
  <text for="Cinx" x="570.0" y="290.0" style="font-family:arial;font-size:13px;stroke-width:0.5;stroke:#115566;fill:#115566;">Cinx</text>
  <text for="Cinx" x="570.0" y="300.0" style="font-family:arial;font-size:10px;stroke-width:0.1;stroke:#CC0000;fill:#CC0000;">220nF</text>
  <text for="Cinx" x="570.0" y="310.0" style="font-family:arial;font-size:10px;stroke-width:0.1;stroke:#CC0000;fill:#CC0000;">1mOhm</text>
  <use id="Cff" class="comp" xlink:href="#WB_CAPACITOR" x="1190.0" y="255.0" transform="rotate(-90, 1190.0, 255.0)" cap="27pF" partNo="GRM1555C1H270JA01D" thermalId="0402" esr="1mOhm" manufacturer="MuRata" />
  <text for="Cff" x="1205.0" y="255.0" style="font-family:arial;font-size:13px;stroke-width:0.5;stroke:#115566;fill:#115566;">Cff</text>
  <text for="Cff" x="1205.0" y="265.0" style="font-family:arial;font-size:10px;stroke-width:0.1;stroke:#CC0000;fill:#CC0000;">27pF</text>
  <text for="Cff" x="1205.0" y="275.0" style="font-family:arial;font-size:10px;stroke-width:0.1;stroke:#CC0000;fill:#CC0000;">1mOhm</text>
  <use id="Iout" class="other" xlink:href="#WB_CURRENT_LOAD" x="1630.0" y="335.0" transform="rotate(-270, 1630.0, 335.0)" />
  <text for="Iout" x="1645.0" y="335.0" style="font-family:arial;font-size:13px;stroke-width:0.5;stroke:#CC0000;fill:#CC0000;">Iout</text>
  <use id="Vin" class="other" xlink:href="#WB_BATTERY" x="100.0" y="275.0" transform="rotate(-270, 100.0, 275.0)" />
  <text for="Vin" x="115.0" y="275.0" style="font-family:arial;font-size:13px;stroke-width:0.5;stroke:#CC0000;fill:#CC0000;">Vin</text>
  <use id="Cb_inpflt" class="comp" xlink:href="#WB_CAP_POLARIZED" x="390.0" y="345.0" transform="rotate(-90, 390.0, 345.0)" cap="27uF" partNo="UUD1H270MCL1GS" manufacturer="Nichicon" thermalId="SM_RADIAL_6.3BMM" esr="680mOhm" />
  <text for="Cb_inpflt" x="405.0" y="345.0" style="font-family:arial;font-size:13px;stroke-width:0.5;stroke:#115566;fill:#115566;">Cb_inpflt</text>
  <text for="Cb_inpflt" x="405.0" y="355.0" style="font-family:arial;font-size:10px;stroke-width:0.1;stroke:#CC0000;fill:#CC0000;">27uF</text>
  <text for="Cb_inpflt" x="405.0" y="365.0" style="font-family:arial;font-size:10px;stroke-width:0.1;stroke:#CC0000;fill:#CC0000;">680mOhm</text>
  <text for="Cb_inpflt" x="405.0" y="375.0" style="font-family:arial;font-size:10px;stroke-width:0.1;stroke:#CC0000;fill:#CC0000;">Qty=2</text>
  <use id="Rz" class="other" xlink:href="#WB_SOURCE_RESISTOR" x="175.0" y="195.0" transform="rotate(-180, 175.0, 195.0)" />
  <text for="Rz" x="155.0" y="180.0" style="font-family:arial;font-size:13px;stroke-width:0.5;stroke:#CC0000;fill:#CC0000;">Rz</text>
  <use id="Lz" class="other" xlink:href="#WB_SOURCE_INDUCTOR" x="245.0" y="195.0" />
  <text for="Lz" x="225.0" y="180.0" style="font-family:arial;font-size:13px;stroke-width:0.5;stroke:#CC0000;fill:#CC0000;">Lz</text>
  <use id="Cf_inpflt" class="comp" xlink:href="#WB_CAPACITOR" x="300.0" y="320.0" transform="rotate(-90, 300.0, 320.0)" cap="10uF" partNo="C3225X7R1H106M250AC" thermalId="1210" esr="1mOhm" manufacturer="TDK" />
  <text for="Cf_inpflt" x="315.0" y="320.0" style="font-family:arial;font-size:13px;stroke-width:0.5;stroke:#115566;fill:#115566;">Cf_inpflt</text>
  <text for="Cf_inpflt" x="315.0" y="330.0" style="font-family:arial;font-size:10px;stroke-width:0.1;stroke:#CC0000;fill:#CC0000;">10uF</text>
  <text for="Cf_inpflt" x="315.0" y="340.0" style="font-family:arial;font-size:10px;stroke-width:0.1;stroke:#CC0000;fill:#CC0000;">1mOhm</text>
  <text for="Cf_inpflt" x="315.0" y="350.0" style="font-family:arial;font-size:10px;stroke-width:0.1;stroke:#CC0000;fill:#CC0000;">Qty=3</text>
  <use id="Rd_inpflt" class="comp" xlink:href="#WB_RESISTOR" x="390.0" y="255.0" transform="rotate(-90, 390.0, 255.0)" partNo="ERJ-3RSFR10V" thermalId="0603" resistance="100mOhm" manufacturer="Panasonic" />
  <text for="Rd_inpflt" x="405.0" y="255.0" style="font-family:arial;font-size:13px;stroke-width:0.5;stroke:#115566;fill:#115566;">Rd_inpflt</text>
  <text for="Rd_inpflt" x="405.0" y="265.0" style="font-family:arial;font-size:10px;stroke-width:0.1;stroke:#CC0000;fill:#CC0000;">100mOhm</text>
  <use id="Lf_inpflt" class="comp" xlink:href="#WB_INDUCTOR" x="335.0" y="195.0" partNo="DFE252012F-1R0M=P2" thermalId="DFE252012F" l="1uH" dcr="40mOhm" manufacturer="MuRata Toko" />
  <text for="Lf_inpflt" x="315.0" y="180.0" style="font-family:arial;font-size:13px;stroke-width:0.5;stroke:#115566;fill:#115566;">Lf_inpflt</text>
  <text for="Lf_inpflt" x="315.0" y="215.0" style="font-family:arial;font-size:10px;stroke-width:0.1;stroke:#CC0000;fill:#CC0000;">1uH</text>
  <text for="Lf_inpflt" x="315.0" y="225.0" style="font-family:arial;font-size:10px;stroke-width:0.1;stroke:#CC0000;fill:#CC0000;">40mOhm</text>
  <line x1="650.0" y1="195.0" x2="790.0" y2="195.0" stroke="#000000" stroke-width="2" fill="none" />
  <line x1="650.0" y1="195.0" x2="650.0" y2="165.0" stroke="#000000" stroke-width="2" fill="none" />
  <line x1="780.0" y1="195.0" x2="790.0" y2="195.0" stroke="#000000" stroke-width="2" fill="none" />
  <line x1="650.0" y1="175.0" x2="650.0" y2="165.0" stroke="#000000" stroke-width="2" fill="none" />
  <line x1="780.0" y1="195.0" x2="790.0" y2="195.0" stroke="#000000" stroke-width="2" fill="none" />
  <line x1="650.0" y1="175.0" x2="650.0" y2="165.0" stroke="#000000" stroke-width="2" fill="none" />
  <line x1="780.0" y1="195.0" x2="790.0" y2="195.0" stroke="#000000" stroke-width="2" fill="none" />
  <line x1="1275.0" y1="315.0" x2="1275.0" y2="275.0" stroke="#000000" stroke-width="2" fill="none" />
  <line x1="1275.0" y1="415.0" x2="1275.0" y2="375.0" stroke="#000000" stroke-width="2" fill="none" />
  <line x1="1275.0" y1="215.0" x2="1275.0" y2="195.0" stroke="#000000" stroke-width="2" fill="none" />
  <line x1="1275.0" y1="415.0" x2="1275.0" y2="405.0" stroke="#000000" stroke-width="2" fill="none" />
  <line x1="1275.0" y1="205.0" x2="1275.0" y2="195.0" stroke="#000000" stroke-width="2" fill="none" />
  <line x1="1275.0" y1="415.0" x2="1275.0" y2="405.0" stroke="#000000" stroke-width="2" fill="none" />
  <line x1="1275.0" y1="205.0" x2="1275.0" y2="195.0" stroke="#000000" stroke-width="2" fill="none" />
  <line x1="1275.0" y1="415.0" x2="1275.0" y2="405.0" stroke="#000000" stroke-width="2" fill="none" />
  <line x1="1275.0" y1="205.0" x2="1275.0" y2="195.0" stroke="#000000" stroke-width="2" fill="none" />
  <line x1="1190.0" y1="300.0" x2="1190.0" y2="285.0" stroke="#000000" stroke-width="2" fill="none" />
  <line x1="1190.0" y1="225.0" x2="1190.0" y2="195.0" stroke="#000000" stroke-width="2" fill="none" />
  <line x1="1190.0" y1="300.0" x2="1190.0" y2="290.0" stroke="#000000" stroke-width="2" fill="none" />
  <line x1="1190.0" y1="205.0" x2="1190.0" y2="195.0" stroke="#000000" stroke-width="2" fill="none" />
  <line x1="1190.0" y1="300.0" x2="1190.0" y2="290.0" stroke="#000000" stroke-width="2" fill="none" />
  <line x1="1190.0" y1="205.0" x2="1190.0" y2="195.0" stroke="#000000" stroke-width="2" fill="none" />
  <line x1="1190.0" y1="300.0" x2="1190.0" y2="290.0" stroke="#000000" stroke-width="2" fill="none" />
  <line x1="1190.0" y1="205.0" x2="1190.0" y2="195.0" stroke="#000000" stroke-width="2" fill="none" />
  <line x1="755.0" y1="215.0" x2="790.0" y2="215.0" stroke="#000000" stroke-width="2" fill="none" />
  <line x1="1025.0" y1="110.0" x2="950.0" y2="110.0" stroke="#000000" stroke-width="2" fill="none" />
  <line x1="555.0" y1="320.0" x2="555.0" y2="415.0" stroke="#000000" stroke-width="2" fill="none" />
  <line x1="555.0" y1="165.0" x2="555.0" y2="260.0" stroke="#000000" stroke-width="2" fill="none" />
  <line x1="1440.0" y1="195.0" x2="1440.0" y2="270.0" stroke="#000000" stroke-width="2" fill="none" />
  <line x1="785.0" y1="380.0" x2="785.0" y2="415.0" stroke="#000000" stroke-width="2" fill="none" />
  <line x1="950.0" y1="245.0" x2="975.0" y2="245.0" stroke="#000000" stroke-width="2" fill="none" />
  <line x1="1100.0" y1="265.0" x2="1155.0" y2="265.0" stroke="#000000" stroke-width="2" fill="none" />
  <line x1="785.0" y1="245.0" x2="785.0" y2="320.0" stroke="#000000" stroke-width="2" fill="none" />
  <line x1="1005.0" y1="265.0" x2="1005.0" y2="225.0" stroke="#000000" stroke-width="2" fill="none" />
  <line x1="475.0" y1="320.0" x2="475.0" y2="415.0" stroke="#000000" stroke-width="2" fill="none" />
  <line x1="1345.0" y1="330.0" x2="1345.0" y2="415.0" stroke="#000000" stroke-width="2" fill="none" />
  <line x1="1155.0" y1="265.0" x2="1155.0" y2="195.0" stroke="#000000" stroke-width="2" fill="none" />
  <line x1="1440.0" y1="330.0" x2="1440.0" y2="415.0" stroke="#000000" stroke-width="2" fill="none" />
  <line x1="950.0" y1="165.0" x2="950.0" y2="110.0" stroke="#000000" stroke-width="2" fill="none" />
  <line x1="975.0" y1="300.0" x2="1275.0" y2="300.0" stroke="#000000" stroke-width="2" fill="none" />
  <line x1="950.0" y1="265.0" x2="950.0" y2="415.0" stroke="#000000" stroke-width="2" fill="none" />
  <line x1="755.0" y1="215.0" x2="755.0" y2="415.0" stroke="#000000" stroke-width="2" fill="none" />
  <line x1="785.0" y1="245.0" x2="790.0" y2="245.0" stroke="#000000" stroke-width="2" fill="none" />
  <line x1="950.0" y1="225.0" x2="1005.0" y2="225.0" stroke="#000000" stroke-width="2" fill="none" />
  <line x1="975.0" y1="245.0" x2="975.0" y2="300.0" stroke="#000000" stroke-width="2" fill="none" />
  <line x1="1040.0" y1="265.0" x2="1005.0" y2="265.0" stroke="#000000" stroke-width="2" fill="none" />
  <line x1="1025.0" y1="170.0" x2="1025.0" y2="195.0" stroke="#000000" stroke-width="2" fill="none" />
  <line x1="390.0" y1="165.0" x2="790.0" y2="165.0" stroke="#000000" stroke-width="2" fill="none" />
  <line x1="950.0" y1="195.0" x2="1080.0" y2="195.0" stroke="#000000" stroke-width="2" fill="none" />
  <line x1="475.0" y1="260.0" x2="475.0" y2="165.0" stroke="#000000" stroke-width="2" fill="none" />
  <line x1="1345.0" y1="270.0" x2="1345.0" y2="195.0" stroke="#000000" stroke-width="2" fill="none" />
  <line x1="425.0" y1="165.0" x2="455.0" y2="165.0" stroke="#000000" stroke-width="2" fill="none" />
  <line x1="1140.0" y1="195.0" x2="1630.0" y2="195.0" stroke="#000000" stroke-width="2" fill="none" />
  <line x1="1050.0" y1="195.0" x2="1080.0" y2="195.0" stroke="#000000" stroke-width="2" fill="none" />
  <line x1="475.0" y1="235.0" x2="475.0" y2="205.0" stroke="#000000" stroke-width="2" fill="none" />
  <line x1="1345.0" y1="245.0" x2="1345.0" y2="215.0" stroke="#000000" stroke-width="2" fill="none" />
  <line x1="425.0" y1="165.0" x2="455.0" y2="165.0" stroke="#000000" stroke-width="2" fill="none" />
  <line x1="1620.0" y1="195.0" x2="1630.0" y2="195.0" stroke="#000000" stroke-width="2" fill="none" />
  <line x1="1050.0" y1="195.0" x2="1080.0" y2="195.0" stroke="#000000" stroke-width="2" fill="none" />
  <line x1="475.0" y1="235.0" x2="475.0" y2="205.0" stroke="#000000" stroke-width="2" fill="none" />
  <line x1="1345.0" y1="245.0" x2="1345.0" y2="215.0" stroke="#000000" stroke-width="2" fill="none" />
  <line x1="425.0" y1="165.0" x2="455.0" y2="165.0" stroke="#000000" stroke-width="2" fill="none" />
  <line x1="1620.0" y1="195.0" x2="1630.0" y2="195.0" stroke="#000000" stroke-width="2" fill="none" />
  <line x1="1050.0" y1="195.0" x2="1080.0" y2="195.0" stroke="#000000" stroke-width="2" fill="none" />
  <line x1="475.0" y1="235.0" x2="475.0" y2="205.0" stroke="#000000" stroke-width="2" fill="none" />
  <line x1="1345.0" y1="245.0" x2="1345.0" y2="215.0" stroke="#000000" stroke-width="2" fill="none" />
  <line x1="1630.0" y1="305.0" x2="1630.0" y2="195.0" stroke="#000000" stroke-width="2" fill="none" />
  <line x1="1630.0" y1="415.0" x2="1630.0" y2="365.0" stroke="#000000" stroke-width="2" fill="none" />
  <line x1="1630.0" y1="205.0" x2="1630.0" y2="195.0" stroke="#000000" stroke-width="2" fill="none" />
  <line x1="1630.0" y1="415.0" x2="1630.0" y2="405.0" stroke="#000000" stroke-width="2" fill="none" />
  <line x1="1630.0" y1="205.0" x2="1630.0" y2="195.0" stroke="#000000" stroke-width="2" fill="none" />
  <line x1="1630.0" y1="415.0" x2="1630.0" y2="405.0" stroke="#000000" stroke-width="2" fill="none" />
  <line x1="1630.0" y1="205.0" x2="1630.0" y2="195.0" stroke="#000000" stroke-width="2" fill="none" />
  <line x1="1630.0" y1="415.0" x2="1630.0" y2="405.0" stroke="#000000" stroke-width="2" fill="none" />
  <line x1="100.0" y1="245.0" x2="100.0" y2="195.0" stroke="#000000" stroke-width="2" fill="none" />
  <line x1="100.0" y1="415.0" x2="100.0" y2="305.0" stroke="#000000" stroke-width="2" fill="none" />
  <line x1="100.0" y1="205.0" x2="100.0" y2="195.0" stroke="#000000" stroke-width="2" fill="none" />
  <line x1="100.0" y1="415.0" x2="100.0" y2="405.0" stroke="#000000" stroke-width="2" fill="none" />
  <line x1="100.0" y1="205.0" x2="100.0" y2="195.0" stroke="#000000" stroke-width="2" fill="none" />
  <line x1="100.0" y1="415.0" x2="100.0" y2="405.0" stroke="#000000" stroke-width="2" fill="none" />
  <line x1="100.0" y1="205.0" x2="100.0" y2="195.0" stroke="#000000" stroke-width="2" fill="none" />
  <line x1="100.0" y1="415.0" x2="100.0" y2="405.0" stroke="#000000" stroke-width="2" fill="none" />
  <line x1="390.0" y1="225.0" x2="390.0" y2="165.0" stroke="#000000" stroke-width="2" fill="none" />
  <line x1="300.0" y1="195.0" x2="300.0" y2="290.0" stroke="#000000" stroke-width="2" fill="none" />
  <line x1="390.0" y1="315.0" x2="390.0" y2="285.0" stroke="#000000" stroke-width="2" fill="none" />
  <line x1="205.0" y1="195.0" x2="215.0" y2="195.0" stroke="#000000" stroke-width="2" fill="none" />
  <line x1="300.0" y1="415.0" x2="300.0" y2="350.0" stroke="#000000" stroke-width="2" fill="none" />
  <line x1="305.0" y1="195.0" x2="275.0" y2="195.0" stroke="#000000" stroke-width="2" fill="none" />
  <line x1="390.0" y1="195.0" x2="365.0" y2="195.0" stroke="#000000" stroke-width="2" fill="none" />
  <line x1="100.0" y1="195.0" x2="145.0" y2="195.0" stroke="#000000" stroke-width="2" fill="none" />
  <line x1="390.0" y1="415.0" x2="390.0" y2="375.0" stroke="#000000" stroke-width="2" fill="none" />
  <line x1="100.0" y1="195.0" x2="110.0" y2="195.0" stroke="#000000" stroke-width="2" fill="none" />
  <line x1="100.0" y1="415.0" x2="1630.0" y2="415.0" stroke="#000000" stroke-width="2" fill="none" />
  <line x1="390.0" y1="415.0" x2="390.0" y2="405.0" stroke="#000000" stroke-width="2" fill="none" />
  <line x1="100.0" y1="195.0" x2="110.0" y2="195.0" stroke="#000000" stroke-width="2" fill="none" />
  <line x1="100.0" y1="415.0" x2="110.0" y2="415.0" stroke="#000000" stroke-width="2" fill="none" />
  <line x1="390.0" y1="415.0" x2="390.0" y2="405.0" stroke="#000000" stroke-width="2" fill="none" />
  <line x1="100.0" y1="195.0" x2="110.0" y2="195.0" stroke="#000000" stroke-width="2" fill="none" />
  <line x1="100.0" y1="415.0" x2="110.0" y2="415.0" stroke="#000000" stroke-width="2" fill="none" />
  <line x1="390.0" y1="415.0" x2="390.0" y2="405.0" stroke="#000000" stroke-width="2" fill="none" />
  <circle cx="1275.0" cy="300.0" r="5" stroke="#000000" stroke-width="0" fill="#000000" />
  <circle cx="1190.0" cy="300.0" r="5" stroke="#000000" stroke-width="0" fill="#000000" />
  <circle cx="650.0" cy="165.0" r="5" stroke="#000000" stroke-width="0" fill="#000000" />
  <circle cx="555.0" cy="165.0" r="5" stroke="#000000" stroke-width="0" fill="#000000" />
  <circle cx="475.0" cy="165.0" r="5" stroke="#000000" stroke-width="0" fill="#000000" />
  <circle cx="1025.0" cy="195.0" r="5" stroke="#000000" stroke-width="0" fill="#000000" />
  <circle cx="1275.0" cy="195.0" r="5" stroke="#000000" stroke-width="0" fill="#000000" />
  <circle cx="1190.0" cy="195.0" r="5" stroke="#000000" stroke-width="0" fill="#000000" />
  <circle cx="1440.0" cy="195.0" r="5" stroke="#000000" stroke-width="0" fill="#000000" />
  <circle cx="1155.0" cy="195.0" r="5" stroke="#000000" stroke-width="0" fill="#000000" />
  <circle cx="1345.0" cy="195.0" r="5" stroke="#000000" stroke-width="0" fill="#000000" />
  <circle cx="390.0" cy="195.0" r="5" stroke="#000000" stroke-width="0" fill="#000000" />
  <circle cx="300.0" cy="195.0" r="5" stroke="#000000" stroke-width="0" fill="#000000" />
  <circle cx="1275.0" cy="415.0" r="5" stroke="#000000" stroke-width="0" fill="#000000" />
  <circle cx="555.0" cy="415.0" r="5" stroke="#000000" stroke-width="0" fill="#000000" />
  <circle cx="785.0" cy="415.0" r="5" stroke="#000000" stroke-width="0" fill="#000000" />
  <circle cx="475.0" cy="415.0" r="5" stroke="#000000" stroke-width="0" fill="#000000" />
  <circle cx="1345.0" cy="415.0" r="5" stroke="#000000" stroke-width="0" fill="#000000" />
  <circle cx="1440.0" cy="415.0" r="5" stroke="#000000" stroke-width="0" fill="#000000" />
  <circle cx="950.0" cy="415.0" r="5" stroke="#000000" stroke-width="0" fill="#000000" />
  <circle cx="755.0" cy="415.0" r="5" stroke="#000000" stroke-width="0" fill="#000000" />
  <circle cx="300.0" cy="415.0" r="5" stroke="#000000" stroke-width="0" fill="#000000" />
  <circle cx="390.0" cy="415.0" r="5" stroke="#000000" stroke-width="0" fill="#000000" />
  <circle cx="865.0" cy="415.0" r="5" stroke="#000000" stroke-width="0" fill="#000000" />
</svg>

